<mxfile host="app.diagrams.net" modified="2021-03-18T02:12:01.010Z" agent="5.0 (Macintosh; Intel Mac OS X 10_15_7) AppleWebKit/537.36 (KHTML, like Gecko) Chrome/86.0.4240.193 Safari/537.36" etag="RZmz5k7Xsrn1Yp6lcZ_O" version="14.4.8" type="github">
  <diagram id="3iJ3F0icTt7glpVxfZ8G" name="Page-1">
    <mxGraphModel dx="946" dy="536" grid="1" gridSize="10" guides="1" tooltips="1" connect="1" arrows="1" fold="1" page="1" pageScale="1" pageWidth="827" pageHeight="1169" math="0" shadow="0">
      <root>
        <mxCell id="0" />
        <mxCell id="1" parent="0" />
        <mxCell id="h8HhiDOI-f9DlOJBQdx_-4" value="" style="edgeStyle=orthogonalEdgeStyle;rounded=0;orthogonalLoop=1;jettySize=auto;html=1;" edge="1" parent="1" source="h8HhiDOI-f9DlOJBQdx_-1" target="h8HhiDOI-f9DlOJBQdx_-2">
          <mxGeometry relative="1" as="geometry" />
        </mxCell>
        <mxCell id="h8HhiDOI-f9DlOJBQdx_-1" value="check" style="rounded=1;whiteSpace=wrap;html=1;" vertex="1" parent="1">
          <mxGeometry x="270" y="150" width="120" height="60" as="geometry" />
        </mxCell>
        <mxCell id="h8HhiDOI-f9DlOJBQdx_-5" value="" style="edgeStyle=orthogonalEdgeStyle;rounded=0;orthogonalLoop=1;jettySize=auto;html=1;" edge="1" parent="1" source="h8HhiDOI-f9DlOJBQdx_-2" target="h8HhiDOI-f9DlOJBQdx_-3">
          <mxGeometry relative="1" as="geometry" />
        </mxCell>
        <mxCell id="h8HhiDOI-f9DlOJBQdx_-2" value="获取锁" style="rounded=1;whiteSpace=wrap;html=1;" vertex="1" parent="1">
          <mxGeometry x="270" y="260" width="120" height="60" as="geometry" />
        </mxCell>
        <mxCell id="h8HhiDOI-f9DlOJBQdx_-3" value="freeze" style="rounded=1;whiteSpace=wrap;html=1;" vertex="1" parent="1">
          <mxGeometry x="270" y="370" width="120" height="60" as="geometry" />
        </mxCell>
      </root>
    </mxGraphModel>
  </diagram>
</mxfile>
